<?xml version="1.0" standalone="no"?>
<!DOCTYPE svg PUBLIC "-//W3C//DTD SVG 20010904//EN"
 "http://www.w3.org/TR/2001/REC-SVG-20010904/DTD/svg10.dtd">
<svg version="1.0" xmlns="http://www.w3.org/2000/svg"
 width="36.000000pt" height="35.000000pt" viewBox="0 0 36.000000 35.000000"
 preserveAspectRatio="xMidYMid meet">
<g transform="translate(0.000000,35.000000) scale(0.050000,-0.050000)"
fill="#d1c000" stroke="none">
<path d="M168 652 c-24 -23 -49 -62 -57 -87 -7 -25 -21 -45 -30 -45 -24 0 -67
-114 -52 -139 7 -11 4 -21 -8 -21 -32 0 -25 -146 10 -196 26 -36 27 -46 4 -55
-44 -17 -37 -84 11 -97 24 -6 167 -12 318 -12 265 0 297 7 308 65 2 8 4 22 6
30 1 8 11 2 22 -15 13 -21 19 25 20 146 0 148 -6 182 -40 219 l-40 43 -1 -49
c-2 -64 -35 4 -38 76 0 25 -19 63 -41 85 -22 22 -40 53 -40 69 0 51 -298 37
-352 -17z m225 -51 c6 -32 24 -63 39 -69 16 -6 28 -27 28 -47 0 -21 11 -49 25
-64 20 -21 20 -28 -1 -35 -31 -12 53 -96 115 -116 85 -27 49 -87 -44 -75 -83
11 -84 10 -50 -29 70 -78 45 -102 -90 -88 -8 1 -15 16 -15 34 0 20 -11 28 -30
21 -22 -9 -30 3 -30 44 0 74 -48 144 -66 96 -8 -20 -3 -33 12 -33 65 0 27
-156 -41 -164 -72 -9 -91 37 -35 84 50 42 34 55 -49 40 -113 -20 -125 27 -20
81 44 22 75 49 69 59 -15 24 65 200 90 200 11 0 20 21 20 47 0 90 55 101 73
14z"/>
<path d="M393 340 c4 -27 -1 -62 -11 -77 -21 -33 -5 -107 20 -92 10 6 18 29
18 51 0 22 9 35 20 28 13 -8 14 4 3 34 -10 25 -13 60 -9 76 8 25 6 25 -10 2
-17 -24 -21 -24 -29 0 -5 15 -6 6 -2 -22z"/>
</g>
</svg>
