<?xml version="1.0" standalone="no"?>
<!DOCTYPE svg PUBLIC "-//W3C//DTD SVG 20010904//EN"
 "http://www.w3.org/TR/2001/REC-SVG-20010904/DTD/svg10.dtd">
<svg version="1.0" xmlns="http://www.w3.org/2000/svg"
 width="36.000000pt" height="35.000000pt" viewBox="0 0 36.000000 35.000000"
 preserveAspectRatio="xMidYMid meet">
<g transform="translate(0.000000,35.000000) scale(0.050000,-0.050000)"
fill="#7a481a" stroke="none">
<path d="M170 680 c-7 -11 -6 -30 2 -43 8 -13 5 -18 -6 -11 -11 7 -51 -21 -88
-61 l-68 -75 -7 -245 -6 -245 330 0 c428 0 393 -22 393 250 0 231 -7 251 -88
258 -10 1 -20 18 -23 37 -8 50 -123 161 -136 130 -8 -20 -10 -20 -11 0 -2 31
-273 35 -292 5z m218 -72 c7 -17 7 -39 2 -48 -6 -10 -2 -23 10 -30 11 -7 20
-2 20 10 0 13 11 20 25 15 27 -9 37 -115 11 -115 -9 0 -23 0 -31 0 -8 0 -15
11 -15 25 0 14 -8 31 -19 39 -19 13 -100 -142 -83 -159 17 -17 53 18 40 39 -7
11 -1 28 14 37 35 22 62 -21 34 -55 -15 -19 -14 -26 3 -26 14 0 29 18 35 40
14 52 37 51 41 -1 2 -27 -15 -48 -51 -61 -69 -27 -87 -56 -72 -123 8 -39 3
-55 -16 -55 -20 0 -26 20 -20 68 6 52 -2 74 -35 97 -58 41 -54 249 4 239 23
-4 35 7 35 32 0 65 47 88 68 32z m-212 -258 c-4 -37 -1 -63 7 -58 8 5 20 -1
27 -12 7 -12 29 -17 48 -11 29 10 34 -5 36 -109 2 -91 -4 -120 -26 -120 -19 0
-28 24 -28 80 0 45 -10 80 -22 80 -12 0 -17 -14 -10 -31 17 -46 -41 -58 -98
-21 -54 36 -64 88 -25 131 20 21 20 24 0 13 -39 -22 -29 18 14 58 22 19 46 54
54 78 18 57 33 8 23 -78z m384 89 c0 -11 18 -40 40 -64 23 -24 37 -55 31 -69
-5 -13 -1 -30 10 -37 49 -30 -18 -149 -83 -149 -30 0 -52 116 -43 225 8 93 45
171 45 94z m-86 -219 c2 -28 9 -73 17 -102 13 -53 -31 -93 -73 -67 -37 23 -22
233 17 225 21 -4 37 -27 39 -56z"/>
</g>
</svg>
