<?xml version="1.0" standalone="no"?>
<!DOCTYPE svg PUBLIC "-//W3C//DTD SVG 20010904//EN"
 "http://www.w3.org/TR/2001/REC-SVG-20010904/DTD/svg10.dtd">
<svg version="1.0" xmlns="http://www.w3.org/2000/svg"
 width="36.000000pt" height="37.000000pt" viewBox="0 0 36.000000 37.000000"
 preserveAspectRatio="xMidYMid meet">
<g transform="translate(0.000000,37.000000) scale(0.050000,-0.050000)"
fill="#264fff" stroke="none">
<path d="M100 718 c0 -10 -13 -18 -30 -18 -16 0 -30 -17 -30 -39 0 -21 -9 -44
-20 -51 -45 -28 -21 -463 27 -486 l43 -21 -45 -2 c-59 -1 -57 -28 4 -69 81
-53 562 -47 596 8 13 22 36 40 50 40 19 0 25 68 25 280 0 226 -5 280 -28 280
-15 0 -33 13 -39 30 -7 16 -25 24 -42 18 -18 -7 -36 1 -43 20 -14 37 -468 46
-468 10z m300 -38 c0 -11 -7 -18 -15 -15 -8 3 -15 -4 -16 -15 0 -11 12 -17 27
-14 16 4 23 -2 16 -12 -6 -11 16 -25 49 -31 101 -20 163 -94 155 -185 -6 -79
-26 -91 -113 -66 -41 12 -75 -98 -46 -145 32 -51 29 -96 -9 -111 -55 -21 -101
131 -49 163 26 16 5 65 -34 80 -46 18 -64 -24 -65 -144 0 -107 -58 -163 -62
-60 0 25 -6 34 -11 20 -17 -42 -66 -28 -79 24 -15 63 6 97 54 85 31 -8 38 1
38 47 0 54 -4 57 -52 38 -69 -26 -88 -10 -88 75 0 79 69 162 145 173 24 4 47
19 52 35 20 65 103 112 103 58z m169 -438 c21 -35 -12 -140 -41 -128 -39 14
-38 146 1 146 16 0 34 -8 40 -18z"/>
<path d="M385 515 c-1 -36 -5 -83 -9 -105 -3 -24 4 -38 19 -35 14 3 26 -6 27
-20 2 -31 56 85 57 122 1 24 -4 24 -33 0 -29 -24 -32 -23 -20 8 14 37 -1 95
-24 95 -8 0 -15 -29 -17 -65z"/>
<path d="M240 452 c0 -21 60 -119 62 -102 14 98 11 110 -25 110 -20 0 -37 -3
-37 -8z"/>
</g>
</svg>
