<?xml version="1.0" standalone="no"?>
<!DOCTYPE svg PUBLIC "-//W3C//DTD SVG 20010904//EN"
 "http://www.w3.org/TR/2001/REC-SVG-20010904/DTD/svg10.dtd">
<svg version="1.0" xmlns="http://www.w3.org/2000/svg"
 width="35.000000pt" height="34.000000pt" viewBox="0 0 35.000000 34.000000"
 preserveAspectRatio="xMidYMid meet">
<g transform="translate(0.000000,34.000000) scale(0.050000,-0.050000)"
fill="#6e0bf9" stroke="none">
<path d="M100 640 c0 -21 -9 -43 -20 -50 -11 -7 -20 -2 -20 11 0 18 -7 18 -29
0 -22 -19 -29 -86 -29 -312 l0 -289 349 0 349 0 0 282 0 282 -62 58 c-81 75
-538 90 -538 18z m334 -66 c20 -25 66 -68 103 -95 82 -60 129 -165 111 -248
-14 -64 -80 -171 -106 -171 -9 0 -28 25 -42 55 -22 44 -28 48 -35 20 -15 -67
-91 -43 -81 25 8 52 3 60 -37 60 -26 0 -47 -9 -47 -20 0 -11 9 -20 20 -20 11
0 17 -20 13 -45 -4 -25 -13 -43 -20 -40 -7 3 -22 5 -33 5 -11 0 -20 20 -21 45
-1 41 -4 39 -32 -15 -41 -77 -36 -73 -74 -58 -18 7 -33 25 -33 40 0 15 -7 28
-16 28 -9 0 -27 31 -41 69 -33 92 4 165 155 305 125 116 163 127 216 60z"/>
<path d="M355 530 c-5 -28 -2 -56 8 -62 9 -6 17 -39 17 -74 1 -102 20 -153 54
-140 24 9 24 15 3 28 -19 12 -19 17 -3 18 13 0 29 -9 36 -20 7 -11 21 -20 32
-20 11 0 15 9 8 20 -7 11 -4 20 6 20 29 0 46 86 22 110 -14 14 -16 8 -6 -17
13 -35 11 -36 -49 -5 -49 26 -65 50 -75 112 -15 91 -39 104 -53 30z m145 -169
c19 -13 23 -26 10 -38 -26 -24 -117 9 -100 37 15 25 51 25 90 1z"/>
<path d="M278 442 c22 -14 14 -25 -33 -49 -33 -17 -67 -25 -75 -17 -8 8 -11
-3 -7 -24 10 -55 51 -62 67 -11 10 30 25 40 52 33 30 -8 38 0 38 38 0 32 -11
48 -35 48 -28 -1 -29 -4 -7 -18z"/>
<path d="M266 320 c-24 -10 -54 -37 -67 -61 -13 -26 -15 -39 -2 -31 11 7 26 4
33 -8 18 -29 55 -25 44 5 -5 14 -19 23 -31 20 -32 -7 -28 6 11 38 18 15 28 17
20 4 -8 -13 0 -28 16 -34 22 -9 28 2 25 38 -2 27 -4 48 -4 48 -1 -1 -21 -9
-45 -19z"/>
</g>
</svg>
