<?xml version="1.0" standalone="no"?>
<!DOCTYPE svg PUBLIC "-//W3C//DTD SVG 20010904//EN"
 "http://www.w3.org/TR/2001/REC-SVG-20010904/DTD/svg10.dtd">
<svg version="1.0" xmlns="http://www.w3.org/2000/svg"
 width="36.000000pt" height="36.000000pt" viewBox="0 0 36.000000 36.000000"
 preserveAspectRatio="xMidYMid meet">
<g transform="translate(0.000000,36.000000) scale(0.050000,-0.050000)"
fill="#297500" stroke="none">
<path d="M91 673 c8 -33 2 -51 -20 -60 -17 -6 -31 -26 -31 -44 0 -17 -9 -26
-20 -19 -13 8 -20 -56 -20 -179 0 -126 7 -191 22 -191 12 0 17 -14 10 -31 -6
-17 -5 -27 3 -22 9 5 38 -3 65 -18 45 -25 46 -28 10 -29 -37 -1 -36 -4 10 -40
75 -58 395 -58 445 0 19 22 26 40 15 40 -11 0 -20 10 -20 21 0 12 8 16 19 10
10 -7 28 4 39 24 12 19 21 25 21 12 1 -13 18 -19 41 -13 37 10 40 27 40 238 0
235 -3 243 -85 231 -8 -2 -28 24 -45 57 -26 51 -41 59 -99 55 -56 -4 -64 -10
-45 -35 15 -19 8 -17 -18 5 -53 45 -140 45 -157 1 -11 -30 -16 -31 -32 -5 -12
19 -18 21 -19 4 0 -38 -36 -30 -46 10 -5 20 -11 9 -12 -25 -3 -57 -5 -58 -32
-22 -16 21 -24 46 -18 55 6 9 1 17 -11 17 -13 0 -17 -19 -10 -47z m305 -102
c-4 -37 -1 -64 8 -58 9 5 16 0 16 -12 0 -11 -9 -21 -20 -21 -11 0 -20 -31 -20
-70 0 -49 9 -70 30 -70 17 0 30 -13 30 -29 0 -31 76 -82 94 -64 5 6 -9 31 -32
55 -23 25 -43 64 -44 87 -2 34 -4 35 -12 6 -14 -55 -42 -41 -31 16 9 45 17 49
68 38 53 -11 57 -8 57 49 0 67 57 91 63 27 10 -119 39 -225 60 -225 52 0 -31
-58 -100 -69 -76 -13 -155 -50 -108 -51 36 0 31 -79 -5 -83 -16 -2 -41 -4 -54
-5 -14 -1 -24 24 -25 58 -1 33 -10 62 -21 65 -11 2 -18 -27 -16 -65 1 -39 -5
-70 -14 -70 -50 0 -80 30 -80 80 0 50 -9 58 -81 70 l-81 14 12 113 c18 168 29
207 56 198 13 -5 21 -32 18 -62 -14 -114 130 -49 148 68 18 109 97 119 84 10z"/>
<path d="M262 404 c-1 -26 -15 -60 -32 -77 -36 -36 -40 -94 -5 -82 14 4 35 28
47 51 12 24 29 37 37 29 9 -8 7 3 -4 25 -11 22 -25 54 -31 70 -7 19 -11 13
-12 -16z"/>
</g>
</svg>
