<?xml version="1.0" standalone="no"?>
<!DOCTYPE svg PUBLIC "-//W3C//DTD SVG 20010904//EN"
 "http://www.w3.org/TR/2001/REC-SVG-20010904/DTD/svg10.dtd">
<svg version="1.0" xmlns="http://www.w3.org/2000/svg"
 width="36.000000pt" height="36.000000pt" viewBox="0 0 36.000000 36.000000"
 preserveAspectRatio="xMidYMid meet">
<g transform="translate(0.000000,36.000000) scale(0.050000,-0.050000)"
fill="#a30029" stroke="none">
<path d="M234 670 c-19 -27 -46 -47 -59 -45 -13 3 -25 -4 -27 -15 -11 -61 -35
-108 -50 -99 -10 6 -18 1 -18 -11 0 -12 -16 -19 -35 -16 -32 5 -35 -17 -35
-234 l0 -240 310 -6 c415 -7 400 -17 400 259 0 154 -7 217 -24 217 -13 0 -45
20 -71 45 -39 37 -45 38 -33 8 12 -33 10 -34 -29 -10 -48 30 -73 85 -53 118
54 86 -214 114 -276 29z m158 -85 c7 -30 26 -76 42 -101 36 -58 27 -135 -16
-132 -37 3 -54 -180 -19 -201 12 -8 21 4 21 28 0 28 13 41 40 41 22 0 40 -9
40 -20 0 -11 9 -20 20 -20 11 0 20 19 20 41 0 23 -9 36 -20 29 -11 -7 -20 -4
-20 6 0 10 -20 29 -45 42 -25 13 -29 19 -10 13 19 -5 34 -3 32 5 -5 37 5 64
24 64 12 0 16 -9 9 -20 -7 -11 1 -20 16 -20 16 0 36 20 45 45 13 40 16 37 24
-25 4 -38 16 -79 25 -90 23 -28 2 -124 -34 -154 -25 -20 -35 -18 -58 13 -23
32 -28 33 -39 6 -7 -19 -31 -29 -60 -26 -27 3 -49 -2 -49 -10 0 -9 -26 -9 -58
1 -33 9 -64 11 -70 5 -7 -6 -12 -1 -12 12 0 13 -13 23 -30 23 -16 0 -30 -9
-30 -20 0 -38 -39 -20 -66 31 -20 40 -22 75 -6 150 21 102 52 133 53 54 0 -42
2 -42 27 -10 14 19 37 35 49 35 13 0 23 16 23 36 0 20 13 54 29 75 17 22 30
58 30 81 2 83 54 93 73 13z"/>
<path d="M354 482 c-8 -48 -11 -92 -5 -98 23 -23 33 15 27 99 l-6 87 -16 -88z"/>
<path d="M211 258 c-46 -44 -54 -63 -36 -81 18 -18 27 -16 36 10 16 41 89 44
89 3 0 -16 7 -30 16 -30 8 0 12 36 7 80 -8 93 -31 97 -112 18z"/>
</g>
</svg>
