<?xml version="1.0" standalone="no"?>
<!DOCTYPE svg PUBLIC "-//W3C//DTD SVG 20010904//EN"
 "http://www.w3.org/TR/2001/REC-SVG-20010904/DTD/svg10.dtd">
<svg version="1.0" xmlns="http://www.w3.org/2000/svg"
 width="36.000000pt" height="36.000000pt" viewBox="0 0 36.000000 36.000000"
 preserveAspectRatio="xMidYMid meet">
<g transform="translate(0.000000,36.000000) scale(0.050000,-0.050000)"
fill="#ff0000" stroke="none">
<path d="M149 641 c-11 -66 -19 -79 -29 -51 -13 37 -71 -70 -63 -115 2 -8 -7
-15 -19 -15 -13 0 -18 -18 -12 -40 6 -22 2 -35 -8 -29 -10 6 -18 -49 -18 -127
0 -123 5 -140 45 -160 25 -12 33 -22 17 -23 -16 0 -7 -17 23 -41 85 -66 457
-59 511 9 21 27 46 43 56 35 9 -8 5 2 -10 21 -24 31 -22 35 17 35 24 0 38 -9
31 -20 -7 -11 -3 -20 9 -20 42 0 26 327 -18 354 -30 19 -41 19 -49 0 -7 -15
-10 -13 -8 6 5 55 -28 140 -54 140 -14 0 -36 27 -50 61 -30 72 -318 92 -321
21 -1 -24 -6 -22 -18 8 -14 33 -20 24 -32 -49z m252 -32 c14 -17 29 -65 33
-105 5 -41 17 -77 27 -81 10 -3 19 -19 19 -34 0 -18 -12 -23 -33 -15 -23 9
-29 5 -18 -12 8 -13 34 -22 58 -19 74 10 173 -43 173 -92 0 -38 -9 -43 -60
-35 -33 5 -56 14 -52 21 5 7 -16 14 -45 16 -50 3 -50 2 -14 -25 21 -15 28 -28
15 -28 -13 0 -24 -21 -24 -48 0 -53 -47 -102 -79 -83 -36 23 -25 111 14 113
32 2 32 4 -1 12 -22 6 -32 21 -26 38 6 16 -1 28 -18 28 -17 0 -24 12 -17 30 6
17 1 30 -11 30 -12 0 -22 -13 -22 -30 0 -19 -21 -31 -55 -33 -54 -2 -54 -3 -5
-11 72 -13 99 -46 39 -47 l-49 -2 45 -18 c30 -12 45 -35 45 -68 0 -93 -89 -52
-103 48 -6 42 -18 49 -87 50 -121 2 -124 71 -4 129 92 45 134 107 134 199 0
93 70 134 121 72z"/>
<path d="M352 523 c-7 -11 -1 -24 13 -30 20 -8 20 -10 0 -11 -14 -1 -25 -16
-25 -34 0 -42 48 -24 57 21 8 42 -26 84 -45 54z"/>
</g>
</svg>
