<?xml version="1.0" standalone="no"?>
<!DOCTYPE svg PUBLIC "-//W3C//DTD SVG 20010904//EN"
 "http://www.w3.org/TR/2001/REC-SVG-20010904/DTD/svg10.dtd">
<svg version="1.0" xmlns="http://www.w3.org/2000/svg"
 width="36.000000pt" height="35.000000pt" viewBox="0 0 36.000000 35.000000"
 preserveAspectRatio="xMidYMid meet">
<g transform="translate(0.000000,35.000000) scale(0.050000,-0.050000)"
fill="#007e9e" stroke="none">
<path d="M200 660 c-22 -22 -45 -40 -51 -39 -18 1 -109 -115 -109 -139 0 -12
-9 -22 -19 -22 -11 0 -17 -93 -15 -225 l4 -225 355 -5 355 -6 0 238 c0 241
-13 282 -86 266 -10 -2 -11 5 -5 16 7 11 -13 48 -43 83 -31 35 -54 70 -52 78
11 39 -293 21 -334 -20z m196 -97 c4 -25 -4 -43 -20 -43 -19 -1 -18 -6 4 -20
17 -11 21 -20 10 -20 -12 0 -20 -64 -20 -150 0 -165 2 -173 30 -100 11 29 35
50 57 50 21 0 44 13 50 29 9 24 2 26 -37 11 -52 -20 -51 -26 -32 145 1 8 21
15 44 15 30 0 39 -9 30 -32 -8 -20 15 -55 65 -100 74 -66 112 -184 62 -190
-11 -2 -27 -4 -37 -6 -10 -1 -25 -9 -34 -17 -19 -19 -49 -19 -43 0 3 8 -2 17
-10 20 -38 13 -55 2 -55 -37 0 -34 -9 -40 -45 -31 -25 7 -55 13 -68 13 -15 0
-24 36 -24 93 0 55 -10 99 -26 109 -36 23 -57 22 -57 -2 0 -11 14 -20 30 -20
23 0 30 -24 30 -100 0 -76 -7 -100 -30 -100 -16 0 -30 9 -30 20 0 11 -16 20
-35 20 -30 1 -31 3 -5 20 21 13 4 16 -54 9 l-85 -10 3 71 c2 54 19 86 69 130
37 32 67 77 67 99 0 28 13 41 42 41 30 0 39 -9 30 -31 -6 -18 -3 -26 8 -19 11
7 20 29 20 50 0 113 82 184 96 83z"/>
</g>
</svg>
